#!OML:ASF F:\VICON\USERDATA\INSTALL\rory3\rory3.ASF
:FULLY-SPECIFIED
:DEGREES
477
root 3.10004 24.2501 -0.202705 -168.714 -25.712 -181.915
lowerback 10.1824 -1.59295 -4.15148
upperback 2.66188 -2.66358 1.91345
thorax -2.64998 -1.3921 4.65916
lowerneck -15.959 2.38396 -10.7964
upperneck 39.8007 2.46916 2.57362
head 16.9688 -1.45332 3.17753
rclavicle -1.02374e-014 2.78299e-015
rhumerus -25.2526 1.60882 -78.146
rradius 80.7147
rwrist -27.8279
rhand -23.0329 13.8141
rfingers 7.12502
rthumb 3.41136 -16.1383
lclavicle -1.02374e-014 2.78299e-015
lhumerus 15.0831 -16.1231 82.5934
lradius 65.9557
lwrist 23.8071
lhand -13.3748 23.8252
lfingers 7.12502
lthumb 12.7319 53.4171
rfemur -17.1067 -6.99647 24.9264
rtibia 14.1632
rfoot -0.413642 -13.5566
rtoes 10.7913
lfemur -70.8156 17.5788 -29.1248
ltibia 100.003
lfoot -23.2492 -19.7535
ltoes -22.9857
478
root 3.09593 24.2627 -0.219989 -168.57 -25.7991 -181.896
lowerback 10.2227 -1.59398 -4.04215
upperback 2.70999 -2.65913 1.89632
thorax -2.62864 -1.39334 4.57925
lowerneck -16.0785 2.39991 -10.9169
upperneck 39.7982 2.56102 2.61414
head 16.9865 -1.4214 3.23738
rclavicle 4.96962e-015 -9.14409e-015
rhumerus -25.4404 1.60803 -78.0027
rradius 80.937
rwrist -28.4966
rhand -22.8377 13.6519
rfingers 7.12502
rthumb 3.59987 -16.2975
lclavicle 4.96962e-015 -9.14409e-015
lhumerus 15.1108 -16.2713 82.5033
lradius 66.1851
lwrist 23.7417
lhand -13.3919 23.7974
lfingers 7.12502
lthumb 12.7154 53.3903
rfemur -17.1477 -7.09526 24.9858
rtibia 14.0075
rfoot -0.135056 -13.5827
rtoes 9.77398
lfemur -71.4162 17.3397 -29.2919
ltibia 99.3758
lfoot -23.4292 -20.4602
ltoes -23.9669
479
root 3.09154 24.2792 -0.245928 -168.56 -25.9081 -181.994
lowerback 10.3679 -1.56723 -4.12658
upperback 2.78841 -2.64508 1.86901
thorax -2.62596 -1.39073 4.60147
lowerneck -16.0187 2.44952 -10.8704
upperneck 39.7176 2.67247 2.51614
head 16.9206 -1.37063 3.20308
rclavicle 8.84592e-015 -1.11319e-014
rhumerus -25.6917 1.55295 -77.7887
rradius 81.1795
rwrist -29.1507
rhand -22.518 13.5937
rfingers 7.12502
rthumb 3.90859 -16.3502
lclavicle 8.84592e-015 -1.11319e-014
lhumerus 15.1027 -16.5018 82.4158
lradius 66.4086
lwrist 23.6187
lhand -13.3439 23.8469
lfingers 7.12502
lthumb 12.7616 53.4369
rfemur -16.968 -7.21032 24.904
rtibia 13.9386
rfoot -0.125911 -13.5861
rtoes 9.38466
lfemur -71.5595 17.121 -29.427
ltibia 98.6046
lfoot -22.8439 -21.7162
ltoes -21.841
480
root 3.09222 24.2887 -0.267323 -168.427 -25.9498 -182.145
lowerback 10.5314 -1.52552 -4.33393
upperback 2.8034 -2.62109 1.83981
thorax -2.69475 -1.37755 4.69288
lowerneck -15.9657 2.47918 -10.7955
upperneck 39.6625 2.75797 2.35702
head 16.8768 -1.33948 3.13163
rclavicle 4.9398e-014 1.21259e-014
rhumerus -25.8619 1.57539 -77.5695
rradius 81.305
rwrist -29.671
rhand -22.2937 13.7321
rfingers 7.12502
rthumb 4.12514 -16.2077
lclavicle 4.9398e-014 1.21259e-014
lhumerus 15.054 -16.716 82.3138
lradius 66.6697
lwrist 23.44
lhand -13.4159 24.0607
lfingers 7.12502
lthumb 12.6922 53.655
rfemur -16.9125 -7.05224 24.7543
rtibia 13.8367
rfoot -0.417495 -13.8303
rtoes 9.84583
lfemur -71.963 16.886 -29.8776
ltibia 97.5158
lfoot -22.522 -22.2768
ltoes -22.2575
481
root 3.0868 24.2911 -0.283789 -168.241 -26.0012 -182.227
lowerback 10.6033 -1.51066 -4.36089
upperback 2.84494 -2.61156 1.79159
thorax -2.69322 -1.37492 4.65858
lowerneck -16.1007 2.45452 -10.7869
upperneck 39.6351 2.78033 2.32012
head 16.8966 -1.32428 3.12185
rclavicle 2.38542e-014 1.92821e-014
rhumerus -25.9776 1.55917 -77.4388
rradius 81.4107
rwrist -29.9606
rhand -22.0331 13.7849
rfingers 7.12502
rthumb 4.37677 -16.1498
lclavicle 2.38542e-014 1.92821e-014
lhumerus 15.0346 -16.9337 82.1477
lradius 67.0554
lwrist 23.4199
lhand -13.5006 24.2732
lfingers 7.12502
lthumb 12.6106 53.8725
rfemur -16.9514 -6.97643 24.6761
rtibia 13.6978
rfoot -0.380407 -13.9474
rtoes 11.5645
lfemur -72.3065 16.5384 -30.0726
ltibia 96.5082
lfoot -21.7358 -23.1607
ltoes -21.4114
